PathFileType	4	(X/Y/Z)	c:\Git\powerlifing_model_clean\simulations\HC835B\Session1\HC835B_OGR_0008\marker_experimental.trc
DataRate	CameraRate	NumFrames	NumMarkers	Units	OrigDataRate	OrigDataStartFrame	OrigNumFrames
240.000000	240.000000	4	38	mm	240.000000	0	217
Frame#	Time	RPSI			LPSI			RASI			LASI			RTH1			RTH2			RTH3			RTH4			RSK1			RSK2			RSK3			RSK4			RCAL1			RCAL2			RCAL3			RST			RPT			RTN			RFMB			RSMB			RVMB			RFMH			RSMH			RVMH			RPM			LTH1			LTH2			LTH3			LTH4			LSK1			LSK2			LSK3			LSK4			LCAL1			LCAL2			LCAL3			LFMH			LVMH			
		X1	Y1	Z1	X2	Y2	Z2	X3	Y3	Z3	X4	Y4	Z4	X5	Y5	Z5	X6	Y6	Z6	X7	Y7	Z7	X8	Y8	Z8	X9	Y9	Z9	X10	Y10	Z10	X11	Y11	Z11	X12	Y12	Z12	X13	Y13	Z13	X14	Y14	Z14	X15	Y15	Z15	X16	Y16	Z16	X17	Y17	Z17	X18	Y18	Z18	X19	Y19	Z19	X20	Y20	Z20	X21	Y21	Z21	X22	Y22	Z22	X23	Y23	Z23	X24	Y24	Z24	X25	Y25	Z25	X26	Y26	Z26	X27	Y27	Z27	X28	Y28	Z28	X29	Y29	Z29	X30	Y30	Z30	X31	Y31	Z31	X32	Y32	Z32	X33	Y33	Z33	X34	Y34	Z34	X35	Y35	Z35	X36	Y36	Z36	X37	Y37	Z37	X38	Y38	Z38	

1	0	469.9265136718751	1230.288818359375	201.4571685791016	357.3341369628907	1230.333618164063	201.8242645263672	526.3259887695314	1156.726684570313	15.53288555145264	296.7621154785157	1145.57958984375	14.53477096557618	597.1024169921876	869.208679199219	33.15581893920899	573.8757324218751	873.0438232421877	-23.56183815002442	580.8688354492189	796.3933105468752	-7.370057106018068	549.1063842773439	798.4514160156252	-56.71224212646486	524.9334716796876	350.6550598144532	-29.02001380920411	530.5061645507814	348.8378295898438	-90.52506256103517	518.9133911132814	299.1730957031251	-56.45940017700197	511.910125732422	298.9295959472657	-116.0830841064453	449.1724243164064	140.5537872314453	-38.48330688476563	409.0289611816407	115.7024841308594	-57.23774719238283	470.399383544922	98.0905685424805	-51.00879669189455	409.2943115234376	148.1715698242188	-120.8169555664063	502.5522766113282	114.5560989379883	-104.4221725463867	430.0755004882814	174.6758880615235	-167.6402282714844	433.0931396484376	162.0243682861328	-203.8841552734376	485.9449462890626	173.9937591552735	-205.9297485351563	509.8570556640626	96.19402313232425	-153.2138366699219	426.344207763672	144.6905822753907	-262.9526672363282	484.3412475585939	148.745834350586	-270.7499694824219	531.2670898437501	99.09961700439456	-230.6708221435547	478.3624572753907	159.0961456298828	-325.0240783691407	238.0458526611329	881.2551269531252	202.7644958496094	245.3666992187501	849.4826660156252	151.4009246826172	247.1961822509766	797.0271606445315	213.0301971435547	268.2278442382813	767.2133178710939	164.7154388427735	300.1521606445313	532.6913452148439	567.6644897460939	289.9191284179688	482.8115234375001	552.9634399414064	301.4076538085938	487.8555908203126	601.0804443359376	307.5354003906251	434.9358520507814	580.4890136718751	374.1806640625001	457.175262451172	724.7590332031251	356.8383178710938	445.0718078613282	767.8724365234376	412.8135375976564	442.9649963378907	749.2646484375001	402.2945861816407	234.2454833984376	680.9340209960939	315.1743164062501	256.9238586425782	748.3809814453126	
2	0.004166666666666667	470.3258666992189	1227.8935546875	188.4294128417969	357.7537841796876	1228.518432617188	188.62109375	526.2054443359376	1154.14208984375	2.490138530731202	296.2891845703126	1144.771240234375	1.299930095672608	597.6109008789064	866.4414062500002	22.19093704223633	574.2976684570314	869.919128417969	-34.54821777343751	581.0472412109376	793.3400878906252	-17.68960571289063	549.4299316406251	795.145690917969	-67.16744995117189	524.2208251953126	347.8123779296876	-43.72247314453126	530.1941528320314	346.8833007812501	-105.1912841796875	518.4605712890626	296.7103576660157	-71.91763305664064	511.6974487304689	297.3262634277344	-131.5364685058594	449.8849182128907	137.4612274169922	-56.3801727294922	409.5918579101564	112.7758941650391	-75.05136871337892	471.1591186523439	95.3532180786133	-69.82826995849611	409.1128540039064	146.2314453125	-138.0924987792969	502.6058044433595	112.8918762207032	-123.3136138916016	430.3882751464845	172.2920074462891	-186.5260772705078	431.848846435547	161.8154449462891	-221.1781463623047	484.3145141601564	174.1771392822266	-223.9507141113282	509.4092712402345	95.34877014160158	-172.5140075683594	424.2978515625001	145.4082336425782	-280.2993774414063	482.1841735839845	149.8356323242188	-288.8184204101563	529.6017456054689	99.63431549072268	-250.1201629638672	475.5274658203126	161.2713012695313	-342.7455139160157	237.8640441894532	878.9378662109377	187.5654907226563	245.0068054199219	847.4024658203127	135.9645690917969	246.6575164794922	794.4409179687502	197.3052978515626	267.4935913085938	765.0168457031251	148.7829742431641	300.1755065917969	537.5903320312501	554.3496093750001	289.5406188964844	487.3449096679689	541.2147216796876	301.4392089843751	493.6541442871095	589.0401611328126	306.9357910156251	440.1852111816407	569.9490356445314	374.5724487304688	466.0397338867189	713.4205932617189	357.4168395996094	455.0055541992189	756.8865966796876	413.2419433593751	452.1244201660157	738.0589599609376	401.1399230957032	242.0207519531251	674.6444702148439	314.4396972656251	266.5928344726563	741.8181762695314	
3	0.008333333333333333	470.8037719726564	1225.164672851563	175.5787658691407	358.1935424804688	1226.45166015625	175.5060729980469	525.9980468750001	1151.346435546875	-10.46814060211182	295.8432312011719	1143.751220703125	-11.98430347442627	597.9423828125001	863.781188964844	11.06658935546875	574.7941284179689	866.8990478515627	-45.74861145019532	581.0286865234376	790.4050292968752	-28.32299995422364	549.8722534179689	791.980895996094	-78.04972076416017	523.5953979492189	345.0750122070313	-57.94617462158205	529.8027954101564	344.8241882324219	-119.4462051391602	517.9726562500001	294.2045898437501	-86.76899719238283	511.3907165527345	295.6184082031251	-146.4209594726563	450.4605407714845	134.4396209716797	-73.44866943359376	410.2477111816407	109.7376174926758	-91.95334625244142	471.9022521972657	92.68954467773439	-87.74082946777345	408.524383544922	144.2990875244141	-154.416732788086	502.5986633300782	111.190902709961	-141.353744506836	429.039520263672	171.5755310058594	-202.0778503417969	430.3881225585939	161.1524963378907	-237.5538177490235	482.7910461425782	173.8152923583985	-240.7549591064454	508.9266052246095	94.36587524414064	-190.8613433837891	422.2820434570314	145.5394134521485	-296.8283386230469	480.1272888183595	150.682861328125	-305.8927307128907	528.2561645507814	100.0591201782227	-268.5530700683594	472.6707763671876	162.9886474609375	-359.4606933593751	236.5005035400391	876.3008422851565	172.2321014404297	244.5593719482422	845.0772705078127	120.6582260131836	245.7440032958985	791.8687133789065	181.6041717529297	266.4405822753907	762.6140747070314	132.8184051513672	300.1104431152344	542.3033447265626	540.6842041015626	289.1558227539063	491.6967773437501	528.9490966796876	301.2709960937501	499.1797180175782	576.5189819335939	306.4635314941407	445.0791625976564	558.9760131835939	374.9253845214844	474.780975341797	701.5168457031251	357.7500305175782	464.7486267089845	745.2720336914064	413.594940185547	461.2434082031251	726.3642578125001	399.9982299804689	249.8115234375001	667.7381591796876	313.7275390625001	276.3940429687501	734.8604736328126	
4	0.0125	471.3114013671876	1222.209594726563	162.8343048095703	358.6693115234376	1224.1162109375	162.4739837646485	525.7805175781251	1148.495971679688	-23.25615692138672	295.3753662109376	1142.494750976563	-25.31217765808106	598.1015625000001	861.1055297851565	-0.2918000519275666	575.3666992187501	864.004821777344	-57.24834442138673	580.8705444335939	787.5557861328127	-39.25939178466798	550.3563232421876	789.0716552734377	-89.38800048828126	523.0240478515626	342.1525878906251	-71.67259979248048	529.3319702148439	342.5966796875001	-133.1704406738282	517.4883422851564	291.6526489257813	-101.053581237793	510.9105529785157	293.7092590332032	-160.7151947021485	450.4354248046876	131.4353942871094	-89.92528533935548	410.4880371093751	106.6071319580078	-108.1003799438477	472.346405029297	90.03687286376955	-104.7108764648438	408.0789794921876	142.0864562988282	-170.0396118164063	502.3757934570314	109.413314819336	-158.3646545410157	428.1795043945314	169.7751159667969	-217.8087768554688	428.9301757812501	160.1127014160157	-253.1299896240235	481.4573364257814	173.259994506836	-256.6326904296876	508.379364013672	93.28531646728517	-208.1439971923829	420.3468017578126	145.3438873291016	-312.5092773437501	478.0629882812501	150.9191131591797	-322.1050109863282	526.8674316406251	100.0994186401367	-285.9046020507813	470.0084838867189	164.1277465820313	-375.2941284179688	235.9012451171876	873.5130004882815	157.1431274414063	243.8788146972657	842.7646484375002	105.2828598022461	244.9959564208985	788.922790527344	165.9157104492188	265.2987976074219	759.9024658203126	116.8638916015625	300.0163574218751	546.6464233398439	526.4420776367189	288.9267578125001	495.791961669922	516.1364746093751	301.2537841796876	504.7186889648439	563.5334472656251	306.3788146972657	449.8015747070314	547.4301757812501	375.2827758789063	483.4134521484376	689.0435791015626	358.0837402343751	474.4803161621095	733.0385742187501	413.8654785156251	470.213836669922	714.1997680664064	398.8194580078126	257.5985412597657	660.5126342773439	312.7615051269532	286.3272399902344	726.8770751953126	
